<?xml version="1.0" encoding="us-ascii" standalone="no"?><svg xmlns="http://www.w3.org/2000/svg" xmlns:xlink="http://www.w3.org/1999/xlink" contentStyleType="text/css" height="411px" preserveAspectRatio="none" style="width:1285px;height:411px;background:#FFFFFF;" version="1.1" viewBox="0 0 1285 411" width="1285px" zoomAndPan="magnify"><defs/><g><!--cluster Modul P?ihl??ky--><g id="cluster_Modul P&#345;ihl&#225;&#353;ky"><rect fill="none" height="373" rx="2.5" ry="2.5" style="stroke:#181818;stroke-width:1.0;" width="999" x="112" y="7"/><text fill="#000000" font-family="sans-serif" font-size="14" font-weight="bold" lengthAdjust="spacing" textLength="128" x="547.5" y="21.9951">Modul P&#345;ihl&#225;&#353;ky</text></g><g id="elem_nahlednout"><ellipse cx="533.9079" cy="272.7816" fill="#F1F1F1" rx="111.9079" ry="24.7816" style="stroke:#181818;stroke-width:0.5;"/><text fill="#000000" font-family="sans-serif" font-size="14" lengthAdjust="spacing" textLength="190" x="438.9079" y="275.6283">Nahl&#233;dnout do dokument&#367;</text></g><g id="elem_podat"><ellipse cx="213.4563" cy="59.7913" fill="#F1F1F1" rx="76.9563" ry="17.7913" style="stroke:#181818;stroke-width:0.5;"/><text fill="#000000" font-family="sans-serif" font-size="14" lengthAdjust="spacing" textLength="111" x="155.0675" y="63.5101">Podat p&#345;ihl&#225;&#353;ku</text></g><g id="elem_zrusit"><ellipse cx="213.4563" cy="130.7913" fill="#F1F1F1" rx="76.9563" ry="17.7913" style="stroke:#181818;stroke-width:0.5;"/><text fill="#000000" font-family="sans-serif" font-size="14" lengthAdjust="spacing" textLength="111" x="155.0675" y="134.5101">Zru&#353;it p&#345;ihl&#225;&#353;ku</text></g><g id="elem_pridat"><ellipse cx="213.7198" cy="201.244" fill="#F1F1F1" rx="74.2198" ry="17.244" style="stroke:#181818;stroke-width:0.5;"/><text fill="#000000" font-family="sans-serif" font-size="14" lengthAdjust="spacing" textLength="104" x="158.7198" y="204.9915">P&#345;idat soubory</text></g><g id="elem_prihlasit"><ellipse cx="213.728" cy="273.0456" fill="#F1F1F1" rx="85.728" ry="19.5456" style="stroke:#181818;stroke-width:0.5;"/><text fill="#000000" font-family="sans-serif" font-size="14" lengthAdjust="spacing" textLength="132" x="147.728" y="275.8923">P&#345;ihl&#225;sit na term&#237;n</text></g><g id="elem_odhlasit"><ellipse cx="213.3536" cy="345.8707" fill="#F1F1F1" rx="77.3536" ry="17.8707" style="stroke:#181818;stroke-width:0.5;"/><text fill="#000000" font-family="sans-serif" font-size="14" lengthAdjust="spacing" textLength="112" x="154.6333" y="349.5454">Odhl&#225;sit term&#237;n</text></g><g id="elem_splnil_odpusteni"><ellipse cx="931.7817" cy="272.9563" fill="#F1F1F1" rx="162.7817" ry="34.9563" style="stroke:#181818;stroke-width:0.5;"/><text fill="#000000" font-family="sans-serif" font-size="14" lengthAdjust="spacing" textLength="297" x="783.2817" y="275.803">Potvrdit spln&#283;n&#237; podm&#237;nek pro odpu&#353;t&#283;n&#237;</text></g><g id="elem_dostavil_se"><ellipse cx="931.788" cy="169.7576" fill="#F1F1F1" rx="149.288" ry="32.2576" style="stroke:#181818;stroke-width:0.5;"/><text fill="#000000" font-family="sans-serif" font-size="14" lengthAdjust="spacing" textLength="269" x="797.288" y="172.6043">Zapsat dostaven&#237; uchaze&#269;e na term&#237;n</text></g><g id="elem_prosel"><ellipse cx="931.8042" cy="71.9608" fill="#F1F1F1" rx="137.8042" ry="29.9608" style="stroke:#181818;stroke-width:0.5;"/><text fill="#000000" font-family="sans-serif" font-size="14" lengthAdjust="spacing" textLength="245" x="809.3042" y="74.8075">Zapsat v&#253;sledek p&#345;ij&#237;mac&#237;ho &#345;&#237;zen&#237;</text></g><g id="elem_seznam_terminu"><ellipse cx="534.209" cy="167.0418" fill="#F1F1F1" rx="108.209" ry="24.0418" style="stroke:#181818;stroke-width:0.5;"/><text fill="#000000" font-family="sans-serif" font-size="14" lengthAdjust="spacing" textLength="182" x="443.209" y="169.8885">Zobrazit seznam term&#237;n&#367;</text></g><!--entity uch--><g id="elem_uch"><ellipse cx="35.5" cy="171.5" fill="#F1F1F1" rx="8" ry="8" style="stroke:#181818;stroke-width:0.5;"/><path d="M35.5,179.5 L35.5,206.5 M22.5,187.5 L48.5,187.5 M35.5,206.5 L22.5,221.5 M35.5,206.5 L48.5,221.5 " fill="none" style="stroke:#181818;stroke-width:0.5;"/><text fill="#000000" font-family="sans-serif" font-size="14" lengthAdjust="spacing" textLength="59" x="6" y="235.9951">Uchaze&#269;</text></g><!--entity so--><g id="elem_so"><ellipse cx="1218" cy="192.5" fill="#F1F1F1" rx="8" ry="8" style="stroke:#181818;stroke-width:0.5;"/><path d="M1218,200.5 L1218,227.5 M1205,208.5 L1231,208.5 M1218,227.5 L1205,242.5 M1218,227.5 L1231,242.5 " fill="none" style="stroke:#181818;stroke-width:0.5;"/><text fill="#000000" font-family="sans-serif" font-size="14" lengthAdjust="spacing" textLength="120" x="1158" y="256.9951">Studijn&#237; odd&#283;len&#237;</text></g><!--link uch to podat--><g id="link_uch_podat"><path d="M52.6291,162.878 C63.9782,140.241 81.2122,112.609 104,95 C118.174,84.047 130.1516,78.2305 147.1286,73.0035 " fill="none" id="uch-to-podat" style="stroke:#181818;stroke-width:1.0;"/><polygon fill="#181818" points="152.863,71.238,143.0844,70.0634,148.0844,72.7093,145.4385,77.7092,152.863,71.238" style="stroke:#181818;stroke-width:1.0;"/></g><!--link uch to zrusit--><g id="link_uch_zrusit"><path d="M65.2331,184.758 C77.0334,178.444 90.9642,171.438 104,166 C123.18,157.999 139.1483,152.4472 158.0733,146.5892 " fill="none" id="uch-to-zrusit" style="stroke:#181818;stroke-width:1.0;"/><polygon fill="#181818" points="163.805,144.815,154.0247,143.6551,159.0286,146.2935,156.3902,151.2974,163.805,144.815" style="stroke:#181818;stroke-width:1.0;"/></g><!--link uch to pridat--><g id="link_uch_pridat"><path d="M65.1691,201 C85.3321,201 107.274,201 133.408,201 " fill="none" id="uch-to-pridat" style="stroke:#181818;stroke-width:1.0;"/><polygon fill="#181818" points="139.408,201,130.408,197,134.408,201,130.408,205,139.408,201" style="stroke:#181818;stroke-width:1.0;"/></g><!--link uch to prihlasit--><g id="link_uch_prihlasit"><path d="M65.2795,217.132 C77.0865,223.43 91.0098,230.454 104,236 C122.487,243.892 137.5797,249.4284 155.9757,255.5254 " fill="none" id="uch-to-prihlasit" style="stroke:#181818;stroke-width:1.0;"/><polygon fill="#181818" points="161.671,257.413,154.3864,250.7847,156.9249,255.84,151.8696,258.3785,161.671,257.413" style="stroke:#181818;stroke-width:1.0;"/></g><!--link uch to odhlasit--><g id="link_uch_odhlasit"><path d="M51.9294,239.078 C63.1943,262.519 80.5911,291.517 104,310 C118.33,321.3149 130.6476,327.3556 147.8836,332.7464 " fill="none" id="uch-to-odhlasit" style="stroke:#181818;stroke-width:1.0;"/><polygon fill="#181818" points="153.61,334.5374,146.2143,328.0332,148.838,333.0449,143.8263,335.6685,153.61,334.5374" style="stroke:#181818;stroke-width:1.0;"/></g><!--reverse link nahlednout to so--><g id="link_nahlednout_so"><path d="M595.314,296.8013 C702.051,335.7184 937.907,404.1809 1119,326 C1150.09,312.5777 1175.89,283.901 1193.2,260.054 " fill="none" id="nahlednout-backto-so" style="stroke:#181818;stroke-width:1.0;"/><polygon fill="#181818" points="589.677,294.746,596.7623,301.5869,594.3745,296.4587,599.5027,294.0709,589.677,294.746" style="stroke:#181818;stroke-width:1.0;"/></g><!--reverse link splnil_odpusteni to so--><g id="link_splnil_odpusteni_so"><path d="M1063.4755,249.5703 C1098.3455,243.3073 1128.74,237.849 1157.88,232.617 " fill="none" id="splnil_odpusteni-backto-so" style="stroke:#181818;stroke-width:1.0;"/><polygon fill="#181818" points="1057.57,250.631,1067.1354,252.977,1062.4913,249.7471,1065.7211,245.103,1057.57,250.631" style="stroke:#181818;stroke-width:1.0;"/></g><!--reverse link dostavil_se to so--><g id="link_dostavil_se_so"><path d="M1052.7819,191.9317 C1090.7419,198.8827 1125.6,205.264 1157.7,211.142 " fill="none" id="dostavil_se-backto-so" style="stroke:#181818;stroke-width:1.0;"/><polygon fill="#181818" points="1046.88,190.851,1055.0123,196.4066,1051.7982,191.7516,1056.4533,188.5375,1046.88,190.851" style="stroke:#181818;stroke-width:1.0;"/></g><!--reverse link prosel to so--><g id="link_prosel_so"><path d="M1048.9919,91.3425 C1074.9619,98.3665 1095.97,106.536 1119,120 C1146.56,136.111 1171.4,162.162 1189.18,183.904 " fill="none" id="prosel-backto-so" style="stroke:#181818;stroke-width:1.0;"/><polygon fill="#181818" points="1043.2,89.776,1050.8435,95.987,1048.0266,91.0814,1052.9322,88.2645,1043.2,89.776" style="stroke:#181818;stroke-width:1.0;"/></g><!--reverse link seznam_terminu to dostavil_se--><g id="link_seznam_terminu_dostavil_se"><path d="M648.1628,167.8574 C691.3408,168.1844 735.875,168.522 782.498,168.875 " fill="none" id="seznam_terminu-backto-dostavil_se" style="stroke:#181818;stroke-width:1.0;stroke-dasharray:7.0,7.0;"/><polygon fill="#181818" points="642.163,167.812,651.1324,171.88,647.1629,167.8499,651.193,163.8803,642.163,167.812" style="stroke:#181818;stroke-width:1.0;"/><text fill="#000000" font-family="sans-serif" font-size="13" lengthAdjust="spacing" textLength="61" x="677" y="165.0669">&#171;include&#187;</text></g><!--reverse link nahlednout to splnil_odpusteni--><g id="link_nahlednout_splnil_odpusteni"><path d="M652.098,273 C690.191,273 727.638,273 768.928,273 " fill="none" id="nahlednout-backto-splnil_odpusteni" style="stroke:#181818;stroke-width:1.0;stroke-dasharray:7.0,7.0;"/><polygon fill="#181818" points="646.098,273,655.098,277,651.098,273,655.098,269,646.098,273" style="stroke:#181818;stroke-width:1.0;"/><text fill="#000000" font-family="sans-serif" font-size="13" lengthAdjust="spacing" textLength="61" x="677" y="269.0669">&#171;include&#187;</text></g><!--link prihlasit to seznam_terminu--><g id="link_prihlasit_seznam_terminu"><path d="M262.528,257.016 C318.833,238.277 406.495,209.1028 467.461,188.8118 " fill="none" id="prihlasit-to-seznam_terminu" style="stroke:#181818;stroke-width:1.0;stroke-dasharray:7.0,7.0;"/><polygon fill="#181818" points="473.154,186.917,463.3514,185.9638,468.4099,188.496,465.8777,193.5545,473.154,186.917" style="stroke:#181818;stroke-width:1.0;"/><text fill="#000000" font-family="sans-serif" font-size="13" lengthAdjust="spacing" textLength="61" x="330" y="212.0669">&#171;include&#187;</text></g><!--link podat to seznam_terminu--><!--link podat to dostavil_se--><!--link podat to prosel--><!--link podat to nahlednout--><!--link seznam_terminu to prosel--><!--SRC=[RLDBRjim4Dtp50FjvGCKXc-Gr43HJOCWOCHfn9Wc1NuCH4MFa0C4MNdPXT0JT2NhNXrAegDF02t4DsyUPzwJ5Fxqu0rO-LHw4D9YuQNHZF726mlPzwBaDLvUC-0EGb4c_9iFGZxhjW4ZnELT8Rts76SOYo9SFoc4xCQ8e63VlSbIjUVkV7Z9u1S320uBxeXmowdmHsWJw7f3po4SKVlkRw-cgOfzSTgpDu9xg3v4Gq-k8Zpb_R2XEyjFcBKDJiubYH95dGcFnhuCUbOk1DCUr4oZWKTxR1kToANY2zMl8h6dL2FMpBtn9ok8w2gbB-_HM5edjk21j0qrLRICxqk3qKIKwY7YpgEMiyLvvNZqqtb-Yj74wFeSSJdtm24XXvyedDf_ZWA8Cz3gpsrpv4NRb0QwjxQfhw7JW0xLhDyyMbx7VR3M_9Yk76CTm8S8IXtORyPeFiZptPXXEeqvNOj389FZQ6H2hiwoZmy7jdaUlygbNmcV692WOPrqOlDfORlPJ5s3Bv1jjr8NAWZSxRBPrKHTtRlaNzU0pMQti6P5Phr1aD-LKWZKz_coOKsOphgkZj6jyCcVjxXXrVmV]--></g></svg>