<?xml version="1.0" encoding="us-ascii" standalone="no"?><svg xmlns="http://www.w3.org/2000/svg" xmlns:xlink="http://www.w3.org/1999/xlink" contentStyleType="text/css" height="451px" preserveAspectRatio="none" style="width:865px;height:451px;background:#FFFFFF;" version="1.1" viewBox="0 0 865 451" width="865px" zoomAndPan="magnify"><defs/><g><!--cluster Modul P?ihl??ky--><g id="cluster_Modul P&#345;ihl&#225;&#353;ky"><rect fill="none" height="438" rx="2.5" ry="2.5" style="stroke:#181818;stroke-width:1.0;" width="579" x="112" y="7"/><text fill="#000000" font-family="sans-serif" font-size="14" font-weight="bold" lengthAdjust="spacing" textLength="128" x="337.5" y="21.9951">Modul P&#345;ihl&#225;&#353;ky</text></g><g id="elem_podat"><ellipse cx="213.4563" cy="59.7913" fill="#F1F1F1" rx="76.9563" ry="17.7913" style="stroke:#181818;stroke-width:0.5;"/><text fill="#000000" font-family="sans-serif" font-size="14" lengthAdjust="spacing" textLength="111" x="155.0675" y="63.5101">Podat p&#345;ihl&#225;&#353;ku</text></g><g id="elem_zrusit"><ellipse cx="213.4563" cy="130.7913" fill="#F1F1F1" rx="76.9563" ry="17.7913" style="stroke:#181818;stroke-width:0.5;"/><text fill="#000000" font-family="sans-serif" font-size="14" lengthAdjust="spacing" textLength="111" x="155.0675" y="134.5101">Zru&#353;it p&#345;ihl&#225;&#353;ku</text></g><g id="elem_pridat"><ellipse cx="213.7198" cy="201.244" fill="#F1F1F1" rx="74.2198" ry="17.244" style="stroke:#181818;stroke-width:0.5;"/><text fill="#000000" font-family="sans-serif" font-size="14" lengthAdjust="spacing" textLength="104" x="158.7198" y="204.9915">P&#345;idat soubory</text></g><g id="elem_prihlasit"><ellipse cx="213.728" cy="273.0456" fill="#F1F1F1" rx="85.728" ry="19.5456" style="stroke:#181818;stroke-width:0.5;"/><text fill="#000000" font-family="sans-serif" font-size="14" lengthAdjust="spacing" textLength="132" x="147.728" y="275.8923">P&#345;ihl&#225;sit na term&#237;n</text></g><g id="elem_odhlasit"><ellipse cx="213.3536" cy="345.8707" fill="#F1F1F1" rx="77.3536" ry="17.8707" style="stroke:#181818;stroke-width:0.5;"/><text fill="#000000" font-family="sans-serif" font-size="14" lengthAdjust="spacing" textLength="112" x="154.6333" y="349.5454">Odhl&#225;sit term&#237;n</text></g><g id="elem_nahlednout"><ellipse cx="548.4079" cy="132.7816" fill="#F1F1F1" rx="111.9079" ry="24.7816" style="stroke:#181818;stroke-width:0.5;"/><text fill="#000000" font-family="sans-serif" font-size="14" lengthAdjust="spacing" textLength="190" x="453.4079" y="135.6283">Nahl&#233;dnout do dokument&#367;</text></g><g id="elem_splnil_odpusteni"><ellipse cx="548.4187" cy="221.1837" fill="#F1F1F1" rx="126.4187" ry="27.6837" style="stroke:#181818;stroke-width:0.5;"/><text fill="#000000" font-family="sans-serif" font-size="14" lengthAdjust="spacing" textLength="221" x="437.9187" y="224.0304">Splnil podm&#237;nky pro odpu&#353;t&#283;n&#237;</text></g><g id="elem_dostavil_se"><ellipse cx="548.3872" cy="304.7774" fill="#F1F1F1" rx="91.8872" ry="20.7774" style="stroke:#181818;stroke-width:0.5;"/><text fill="#000000" font-family="sans-serif" font-size="14" lengthAdjust="spacing" textLength="146" x="475.3872" y="307.6241">Dostaven&#237; na term&#237;n</text></g><g id="elem_prosel"><ellipse cx="213.5664" cy="413.7722" fill="#F1F1F1" rx="60.0664" ry="14.7722" style="stroke:#181818;stroke-width:0.5;"/><text fill="#000000" font-family="sans-serif" font-size="14" lengthAdjust="spacing" textLength="67" x="177.0664" y="417.5198">Pro&#353;el P&#344;</text></g><!--entity uch--><g id="elem_uch"><ellipse cx="35.5" cy="171.5" fill="#F1F1F1" rx="8" ry="8" style="stroke:#181818;stroke-width:0.5;"/><path d="M35.5,179.5 L35.5,206.5 M22.5,187.5 L48.5,187.5 M35.5,206.5 L22.5,221.5 M35.5,206.5 L48.5,221.5 " fill="none" style="stroke:#181818;stroke-width:0.5;"/><text fill="#000000" font-family="sans-serif" font-size="14" lengthAdjust="spacing" textLength="59" x="6" y="235.9951">Uchaze&#269;</text></g><!--entity so--><g id="elem_so"><ellipse cx="798" cy="233.5" fill="#F1F1F1" rx="8" ry="8" style="stroke:#181818;stroke-width:0.5;"/><path d="M798,241.5 L798,268.5 M785,249.5 L811,249.5 M798,268.5 L785,283.5 M798,268.5 L811,283.5 " fill="none" style="stroke:#181818;stroke-width:0.5;"/><text fill="#000000" font-family="sans-serif" font-size="14" lengthAdjust="spacing" textLength="120" x="738" y="297.9951">Studijn&#237; odd&#283;len&#237;</text></g><!--link uch to podat--><g id="link_uch_podat"><path d="M52.6291,162.878 C63.9782,140.241 81.2122,112.609 104,95 C118.174,84.047 130.1516,78.2305 147.1286,73.0035 " fill="none" id="uch-to-podat" style="stroke:#181818;stroke-width:1.0;"/><polygon fill="#181818" points="152.863,71.238,143.0844,70.0634,148.0844,72.7093,145.4385,77.7092,152.863,71.238" style="stroke:#181818;stroke-width:1.0;"/></g><!--link uch to zrusit--><g id="link_uch_zrusit"><path d="M65.2331,184.758 C77.0334,178.444 90.9642,171.438 104,166 C123.18,157.999 139.1483,152.4472 158.0733,146.5892 " fill="none" id="uch-to-zrusit" style="stroke:#181818;stroke-width:1.0;"/><polygon fill="#181818" points="163.805,144.815,154.0247,143.6551,159.0286,146.2935,156.3902,151.2974,163.805,144.815" style="stroke:#181818;stroke-width:1.0;"/></g><!--link uch to pridat--><g id="link_uch_pridat"><path d="M65.1691,201 C85.3321,201 107.274,201 133.408,201 " fill="none" id="uch-to-pridat" style="stroke:#181818;stroke-width:1.0;"/><polygon fill="#181818" points="139.408,201,130.408,197,134.408,201,130.408,205,139.408,201" style="stroke:#181818;stroke-width:1.0;"/></g><!--link uch to prihlasit--><g id="link_uch_prihlasit"><path d="M65.2795,217.132 C77.0865,223.43 91.0098,230.454 104,236 C122.487,243.892 137.5797,249.4284 155.9757,255.5254 " fill="none" id="uch-to-prihlasit" style="stroke:#181818;stroke-width:1.0;"/><polygon fill="#181818" points="161.671,257.413,154.3864,250.7847,156.9249,255.84,151.8696,258.3785,161.671,257.413" style="stroke:#181818;stroke-width:1.0;"/></g><!--link uch to odhlasit--><g id="link_uch_odhlasit"><path d="M51.9294,239.078 C63.1943,262.519 80.5911,291.517 104,310 C118.33,321.315 130.6475,327.3562 147.8835,332.7462 " fill="none" id="uch-to-odhlasit" style="stroke:#181818;stroke-width:1.0;"/><polygon fill="#181818" points="153.61,334.537,146.2141,328.0331,148.8379,333.0447,143.8264,335.6685,153.61,334.537" style="stroke:#181818;stroke-width:1.0;"/></g><!--reverse link nahlednout to so--><g id="link_nahlednout_so"><path d="M637.7939,151.3091 C660.3249,157.7201 678.414,164.673 699,176 C722.122,188.723 744.411,207.779 761.875,224.816 " fill="none" id="nahlednout-backto-so" style="stroke:#181818;stroke-width:1.0;"/><polygon fill="#181818" points="632.023,149.667,639.5847,155.9774,636.8321,151.0354,641.7741,148.2828,632.023,149.667" style="stroke:#181818;stroke-width:1.0;"/></g><!--reverse link splnil_odpusteni to so--><g id="link_splnil_odpusteni_so"><path d="M654.6574,238.8449 C684.9164,243.9799 711.297,248.456 737.995,252.987 " fill="none" id="splnil_odpusteni-backto-so" style="stroke:#181818;stroke-width:1.0;"/><polygon fill="#181818" points="648.742,237.841,656.9459,243.2904,653.6715,238.6775,658.2844,235.4032,648.742,237.841" style="stroke:#181818;stroke-width:1.0;"/></g><!--reverse link dostavil_se to so--><g id="link_dostavil_se_so"><path d="M628.6694,291.5652 C665.3024,285.3492 703.147,278.927 737.648,273.072 " fill="none" id="dostavil_se-backto-so" style="stroke:#181818;stroke-width:1.0;"/><polygon fill="#181818" points="622.754,292.569,632.2963,295.007,627.6835,291.7325,630.958,287.1197,622.754,292.569" style="stroke:#181818;stroke-width:1.0;"/></g><!--reverse link prosel to so--><g id="link_prosel_so"><path d="M279.222,415.5539 C373.264,415.8616 555.64,407.5222 699,344 C721.804,333.895 743.571,316.929 760.773,301.128 " fill="none" id="prosel-backto-so" style="stroke:#181818;stroke-width:1.0;"/><polygon fill="#181818" points="273.222,415.5343,282.2089,419.5637,278.222,415.5507,282.235,411.5638,273.222,415.5343" style="stroke:#181818;stroke-width:1.0;"/></g><!--reverse link pridat to nahlednout--><g id="link_pridat_nahlednout"><path d="M275.3667,188.5706 C328.6617,177.6876 404.287,162.245 465.289,149.788 " fill="none" id="pridat-backto-nahlednout" style="stroke:#181818;stroke-width:1.0;stroke-dasharray:7.0,7.0;"/><polygon fill="#181818" points="269.488,189.771,279.1063,191.8895,274.3869,188.7706,277.5057,184.0512,269.488,189.771" style="stroke:#181818;stroke-width:1.0;"/><text fill="#000000" font-family="sans-serif" font-size="13" lengthAdjust="spacing" textLength="61" x="330" y="161.0669">&#171;extend&#187;</text></g><!--reverse link pridat to splnil_odpusteni--><g id="link_pridat_splnil_odpusteni"><path d="M291.5172,205.6257 C332.4902,208.0867 379.123,210.887 426.442,213.729 " fill="none" id="pridat-backto-splnil_odpusteni" style="stroke:#181818;stroke-width:1.0;stroke-dasharray:7.0,7.0;"/><polygon fill="#181818" points="285.528,205.266,294.272,209.7984,290.519,205.5658,294.7516,201.8128,285.528,205.266" style="stroke:#181818;stroke-width:1.0;"/><text fill="#000000" font-family="sans-serif" font-size="13" lengthAdjust="spacing" textLength="61" x="330" y="204.0669">&#171;extend&#187;</text></g><!--reverse link prihlasit to dostavil_se--><g id="link_prihlasit_dostavil_se"><path d="M298.5465,281.0769 C349.8735,286.0089 411.021,291.885 463.505,296.928 " fill="none" id="prihlasit-backto-dostavil_se" style="stroke:#181818;stroke-width:1.0;stroke-dasharray:7.0,7.0;"/><polygon fill="#181818" points="292.574,280.503,301.1501,285.3455,297.5511,280.9812,301.9153,277.3822,292.574,280.503" style="stroke:#181818;stroke-width:1.0;"/><text fill="#000000" font-family="sans-serif" font-size="13" lengthAdjust="spacing" textLength="61" x="330" y="280.0669">&#171;extend&#187;</text></g><!--SRC=[RPA_JiCm4CPtFyKfU_e0AEh42bIgM5YGYKrZwleY_q6qY4TW1tNAo53n46tU2pk9MpT5wX3V_Uwxk-yg-RC5Yw35ehB0XEQb5QW8eQL53TbzMT4DFtncG0suiehnkNLClAZz3f2nmrPo_zan1Wa98bGj98Vi1fcJC6k_HINtJTiirncy4m1dU4cD1sR8g8Nw1BXEfWxXb7lGhct4F-H6EoFEqD0jY1fqJwZNlPuM8y4uaoy6HS5olThlL8GhIKUgTopIAOhiahobdlnX2frt5FrlwLPSsVQtgr0-oxjaMZElfH8oh1sabsi_0thnsYzj3zkZkHtr6EB6SYLIXMiqbhw6EupNOLt6rnb-Pe36jk7XE5_3rcYu91-4-3j3da-78yJNOFGnsJkQF0SdOkHe3Jcj34MUXx_8U94OJqQDeNwi-29zMoWcayH9k8AiAFYRbsBJQPP25vqkqNxCZaxxduD_]--></g></svg>