<?xml version="1.0" encoding="windows-1252" standalone="no"?>
<svg xmlns="http://www.w3.org/2000/svg" xmlns:xlink="http://www.w3.org/1999/xlink" contentStyleType="text/css" height="451px" preserveAspectRatio="none" style="width:1212px;height:451px;background:#FFFFFF;" version="1.1" viewBox="0 0 1212 451" width="1212px" zoomAndPan="magnify"><defs/><g><!--cluster Modul P?ihl??ky--><g id="cluster_Modul P&#345;ihlášky"><rect fill="none" height="438" rx="2.5" ry="2.5" style="stroke:#181818;stroke-width:1.0;" width="926" x="112" y="7"/><text fill="#000000" font-family="sans-serif" font-size="14" font-weight="bold" lengthAdjust="spacing" textLength="128" x="511" y="21.9951">Modul P&#345;ihlášky</text></g><g id="elem_podat"><ellipse cx="213.4563" cy="59.7913" fill="#F1F1F1" rx="76.9563" ry="17.7913" style="stroke:#181818;stroke-width:0.5;"/><text fill="#000000" font-family="sans-serif" font-size="14" lengthAdjust="spacing" textLength="111" x="155.0675" y="63.5101">Podat p&#345;ihlášku</text></g><g id="elem_zrusit"><ellipse cx="213.4563" cy="130.7913" fill="#F1F1F1" rx="76.9563" ry="17.7913" style="stroke:#181818;stroke-width:0.5;"/><text fill="#000000" font-family="sans-serif" font-size="14" lengthAdjust="spacing" textLength="111" x="155.0675" y="134.5101">Zrušit p&#345;ihlášku</text></g><g id="elem_pridat"><ellipse cx="213.7198" cy="201.244" fill="#F1F1F1" rx="74.2198" ry="17.244" style="stroke:#181818;stroke-width:0.5;"/><text fill="#000000" font-family="sans-serif" font-size="14" lengthAdjust="spacing" textLength="104" x="158.7198" y="204.9915">P&#345;idat soubory</text></g><g id="elem_prihlasit"><ellipse cx="213.728" cy="273.0456" fill="#F1F1F1" rx="85.728" ry="19.5456" style="stroke:#181818;stroke-width:0.5;"/><text fill="#000000" font-family="sans-serif" font-size="14" lengthAdjust="spacing" textLength="132" x="147.728" y="275.8923">P&#345;ihlásit na termín</text></g><g id="elem_odhlasit"><ellipse cx="213.3536" cy="345.8707" fill="#F1F1F1" rx="77.3536" ry="17.8707" style="stroke:#181818;stroke-width:0.5;"/><text fill="#000000" font-family="sans-serif" font-size="14" lengthAdjust="spacing" textLength="112" x="154.6333" y="349.5454">Odhlásit termín</text></g><g id="elem_nahlednout"><ellipse cx="533.9079" cy="189.7816" fill="#F1F1F1" rx="111.9079" ry="24.7816" style="stroke:#181818;stroke-width:0.5;"/><text fill="#000000" font-family="sans-serif" font-size="14" lengthAdjust="spacing" textLength="190" x="438.9079" y="192.6283">Nahlédnout do dokument&#367;</text></g><g id="elem_splnil_odpusteni"><ellipse cx="895.4187" cy="192.1837" fill="#F1F1F1" rx="126.4187" ry="27.6837" style="stroke:#181818;stroke-width:0.5;"/><text fill="#000000" font-family="sans-serif" font-size="14" lengthAdjust="spacing" textLength="221" x="784.9187" y="195.0304">Splnil podmínky pro odpušt&#283;ní</text></g><g id="elem_dostavil_se"><ellipse cx="533.8872" cy="343.7774" fill="#F1F1F1" rx="91.8872" ry="20.7774" style="stroke:#181818;stroke-width:0.5;"/><text fill="#000000" font-family="sans-serif" font-size="14" lengthAdjust="spacing" textLength="146" x="460.8872" y="346.6241">Dostavení na termín</text></g><g id="elem_prosel"><ellipse cx="213.5664" cy="413.7722" fill="#F1F1F1" rx="60.0664" ry="14.7722" style="stroke:#181818;stroke-width:0.5;"/><text fill="#000000" font-family="sans-serif" font-size="14" lengthAdjust="spacing" textLength="67" x="177.0664" y="417.5198">Prošel P&#344;</text></g><g id="elem_seznam_teminu"><ellipse cx="533.7839" cy="268.8568" fill="#F1F1F1" rx="79.7839" ry="18.3568" style="stroke:#181818;stroke-width:0.5;"/><text fill="#000000" font-family="sans-serif" font-size="14" lengthAdjust="spacing" textLength="118" x="473.0356" y="272.2613">Seznam termín&#367;</text></g><!--entity uch--><g id="elem_uch"><ellipse cx="35.5" cy="171.5" fill="#F1F1F1" rx="8" ry="8" style="stroke:#181818;stroke-width:0.5;"/><path d="M35.5,179.5 L35.5,206.5 M22.5,187.5 L48.5,187.5 M35.5,206.5 L22.5,221.5 M35.5,206.5 L48.5,221.5 " fill="none" style="stroke:#181818;stroke-width:0.5;"/><text fill="#000000" font-family="sans-serif" font-size="14" lengthAdjust="spacing" textLength="59" x="6" y="235.9951">Uchaze&#269;</text></g><!--entity so--><g id="elem_so"><ellipse cx="1145" cy="279.5" fill="#F1F1F1" rx="8" ry="8" style="stroke:#181818;stroke-width:0.5;"/><path d="M1145,287.5 L1145,314.5 M1132,295.5 L1158,295.5 M1145,314.5 L1132,329.5 M1145,314.5 L1158,329.5 " fill="none" style="stroke:#181818;stroke-width:0.5;"/><text fill="#000000" font-family="sans-serif" font-size="14" lengthAdjust="spacing" textLength="120" x="1085" y="343.9951">Studijní odd&#283;lení</text></g><!--link uch to podat--><g id="link_uch_podat"><path d="M52.6291,162.878 C63.9782,140.241 81.2122,112.609 104,95 C118.174,84.047 130.1516,78.2305 147.1286,73.0035 " fill="none" id="uch-to-podat" style="stroke:#181818;stroke-width:1.0;"/><polygon fill="#181818" points="152.863,71.238,143.0844,70.0634,148.0844,72.7093,145.4385,77.7092,152.863,71.238" style="stroke:#181818;stroke-width:1.0;"/></g><!--link uch to zrusit--><g id="link_uch_zrusit"><path d="M65.2331,184.758 C77.0334,178.444 90.9642,171.438 104,166 C123.18,157.999 139.1483,152.4472 158.0733,146.5892 " fill="none" id="uch-to-zrusit" style="stroke:#181818;stroke-width:1.0;"/><polygon fill="#181818" points="163.805,144.815,154.0247,143.6551,159.0286,146.2935,156.3902,151.2974,163.805,144.815" style="stroke:#181818;stroke-width:1.0;"/></g><!--link uch to pridat--><g id="link_uch_pridat"><path d="M65.1691,201 C85.3321,201 107.274,201 133.408,201 " fill="none" id="uch-to-pridat" style="stroke:#181818;stroke-width:1.0;"/><polygon fill="#181818" points="139.408,201,130.408,197,134.408,201,130.408,205,139.408,201" style="stroke:#181818;stroke-width:1.0;"/></g><!--link uch to prihlasit--><g id="link_uch_prihlasit"><path d="M65.2795,217.132 C77.0865,223.43 91.0098,230.454 104,236 C122.487,243.892 137.5797,249.4284 155.9757,255.5254 " fill="none" id="uch-to-prihlasit" style="stroke:#181818;stroke-width:1.0;"/><polygon fill="#181818" points="161.671,257.413,154.3864,250.7847,156.9249,255.84,151.8696,258.3785,161.671,257.413" style="stroke:#181818;stroke-width:1.0;"/></g><!--link uch to odhlasit--><g id="link_uch_odhlasit"><path d="M51.9294,239.078 C63.1943,262.519 80.5911,291.517 104,310 C118.33,321.315 130.6475,327.3562 147.8835,332.7462 " fill="none" id="uch-to-odhlasit" style="stroke:#181818;stroke-width:1.0;"/><polygon fill="#181818" points="153.61,334.537,146.2141,328.0331,148.8379,333.0447,143.8264,335.6685,153.61,334.537" style="stroke:#181818;stroke-width:1.0;"/></g><!--reverse link nahlednout to so--><g id="link_nahlednout_so"><path d="M623.4212,207.9451 C668.2152,216.9941 718.684,227.117 769,237 C880.561,258.913 1010.95,283.779 1084.87,297.808 " fill="none" id="nahlednout-backto-so" style="stroke:#181818;stroke-width:1.0;"/><polygon fill="#181818" points="617.54,206.757,625.5697,212.4599,622.441,207.7471,627.1538,204.6183,617.54,206.757" style="stroke:#181818;stroke-width:1.0;"/></g><!--reverse link splnil_odpusteni to so--><g id="link_splnil_odpusteni_so"><path d="M978.5251,215.6674 C1005.1801,224.4904 1029.18,233.843 1055,247 C1068.26,253.754 1081.8,262.243 1094.2,270.754 " fill="none" id="splnil_odpusteni-backto-so" style="stroke:#181818;stroke-width:1.0;"/><polygon fill="#181818" points="972.829,213.782,980.1161,220.4075,977.5757,215.3532,982.6301,212.8128,972.829,213.782" style="stroke:#181818;stroke-width:1.0;"/></g><!--reverse link dostavil_se to so--><g id="link_dostavil_se_so"><path d="M629.5441,338.5667 C755.5631,331.3237 977.257,318.583 1084.75,312.405 " fill="none" id="dostavil_se-backto-so" style="stroke:#181818;stroke-width:1.0;"/><polygon fill="#181818" points="623.554,338.911,632.7687,342.388,628.5458,338.6241,632.3096,334.4012,623.554,338.911" style="stroke:#181818;stroke-width:1.0;"/></g><!--reverse link prosel to so--><g id="link_prosel_so"><path d="M279.6043,412.8501 C416.6983,409.5648 760.432,395.8484 1046,338 C1058.69,335.428 1072.12,331.965 1084.82,328.328 " fill="none" id="prosel-backto-so" style="stroke:#181818;stroke-width:1.0;"/><polygon fill="#181818" points="273.606,412.9938,282.6992,416.777,278.6046,412.874,282.5076,408.7793,273.606,412.9938" style="stroke:#181818;stroke-width:1.0;"/></g><!--reverse link pridat to nahlednout--><g id="link_pridat_nahlednout"><path d="M292.7694,198.297 C333.0554,196.906 378.058,195.351 423.18,193.793 " fill="none" id="pridat-backto-nahlednout" style="stroke:#181818;stroke-width:1.0;stroke-dasharray:7.0,7.0;"/><polygon fill="#181818" points="286.773,198.504,295.9057,202.191,291.77,198.3315,295.6296,194.1958,286.773,198.504" style="stroke:#181818;stroke-width:1.0;"/><text fill="#000000" font-family="sans-serif" font-size="13" lengthAdjust="spacing" textLength="61" x="330" y="191.0669">«include»</text></g><!--reverse link nahlednout to splnil_odpusteni--><g id="link_nahlednout_splnil_odpusteni"><path d="M652.2859,190.6523 C691.1569,190.8683 729.051,191.08 768.999,191.302 " fill="none" id="nahlednout-backto-splnil_odpusteni" style="stroke:#181818;stroke-width:1.0;stroke-dasharray:7.0,7.0;"/><polygon fill="#181818" points="646.286,190.619,655.2636,194.6689,651.2859,190.6468,655.3081,186.6691,646.286,190.619" style="stroke:#181818;stroke-width:1.0;"/><text fill="#000000" font-family="sans-serif" font-size="13" lengthAdjust="spacing" textLength="61" x="677" y="186.0669">«include»</text></g><!--reverse link prihlasit to dostavil_se--><g id="link_prihlasit_dostavil_se"><path d="M281.0133,287.8274 C336.0623,300.0984 411.168,316.841 467.635,329.429 " fill="none" id="prihlasit-backto-dostavil_se" style="stroke:#181818;stroke-width:1.0;stroke-dasharray:7.0,7.0;"/><polygon fill="#181818" points="275.157,286.522,283.0711,292.3843,280.0372,287.6099,284.8117,284.576,275.157,286.522" style="stroke:#181818;stroke-width:1.0;"/><text fill="#000000" font-family="sans-serif" font-size="13" lengthAdjust="spacing" textLength="61" x="330" y="296.0669">«extend»</text></g><!--link prihlasit to seznam_teminu--><g id="link_prihlasit_seznam_teminu"><path d="M299.016,271.939 C347.116,271.334 400.9805,270.6584 448.1155,270.0664 " fill="none" id="prihlasit-to-seznam_teminu" style="stroke:#181818;stroke-width:1.0;stroke-dasharray:7.0,7.0;"/><polygon fill="#181818" points="454.115,269.991,445.0655,266.1043,449.1154,270.0538,445.1659,274.1037,454.115,269.991" style="stroke:#181818;stroke-width:1.0;"/><text fill="#000000" font-family="sans-serif" font-size="13" lengthAdjust="spacing" textLength="61" x="330" y="266.0669">«include»</text></g><!--SRC=[RPA_JiCm4CPtFyKfU_e0gCh42bIgM5Wg4n-DgMj7_eDe4O_03khKaQ7Y8Tgy5xOJboH5oX3V_UwxkyyM-6J1Aj1yMLbWN6DfkPA4qD8g3TbzMT4jdZuoe0PSMQNut3h6d-Nn08gnqqwW_usCKOG44IgN0Y6xKSm9c3LVl1B7VRDVRJ9u8m3EO4cD1sQAKGlr7-2YJ1t2VUv1ksRF_o6tsXa-G4Et86gKUrHwq-ffFX9CC_bYa1GiwlNn81DS2JfIlME9xgEANPAtr9FVJ2hd7LN-MxarIjlyn0hfinYJ_PfvBIGNOUqWlThu6PGNh_tIzhGxcnkfHOWRYvBt5QwLiVGbtCDu7HOplixWm02jcZs6o_dijbO6nM0et4gwJbhT_2O65nRNN3hoJeX_5P3dHNTbwTHTopdP-jyxThwboDb8ycSGJFCyFAZnsYdUMoo5sYNIYRHjOJgPz7o7AyYcKovBuHWMHJRewCcBTcF-F7t4-rD44bzz5Hk2aqanT6ui-Wi0]--></g></svg>